<svg xmlns="http://www.w3.org/2000/svg" xmlns:xlink="http://www.w3.org/1999/xlink" viewBox="0,0,256,256" width="64px" height="64px" fill-rule="nonzero"><defs><linearGradient x1="19.584" y1="23.06" x2="19.584" y2="38.89" gradientUnits="userSpaceOnUse" id="color-1"><stop offset="0" stop-color="#e6e6fa"></stop><stop offset="1" stop-color="#e6abff"></stop></linearGradient><linearGradient x1="44.261" y1="23.154" x2="44.261" y2="39.255" gradientUnits="userSpaceOnUse" id="color-2"><stop offset="0" stop-color="#e6e6fa"></stop><stop offset="1" stop-color="#e6abff"></stop></linearGradient><linearGradient x1="32" y1="14" x2="32" y2="50" gradientUnits="userSpaceOnUse" id="color-3"><stop offset="0" stop-color="#1a6dff"></stop><stop offset="1" stop-color="#c822ff"></stop></linearGradient></defs><g fill="none" fill-rule="nonzero" stroke="none" stroke-width="1" stroke-linecap="butt" stroke-linejoin="miter" stroke-miterlimit="10" stroke-dasharray="" stroke-dashoffset="0" font-family="none" font-weight="none" font-size="none" text-anchor="none" style="mix-blend-mode: normal"><g transform="scale(4,4)"><path d="M25.57,31.33c-2.87,2.33 -6.32,5.06 -8.79,6.71c-1.15,0.77 -1.75,0.85 -1.96,0.85c-0.1,0 -0.17,0 -0.31,-0.18c-1.74,-2.23 -0.62,-11.25 0.29,-15.65c0.83,0.5 1.68,1.06 2.54,1.66l-0.84,0.7c-0.86,0.68 -1.36,1.73 -1.36,2.85v2.23c0,1.13 0.92,2.05 2.05,2.05c0.44,0 0.86,-0.15 1.22,-0.41l4.35,-3.22c0.96,0.79 1.89,1.6 2.81,2.41z" fill="url(#color-1)"></path><path d="M49.358,39.255c-1.544,-0.92 -3.411,-2.626 -5.995,-4.988c-1.318,-1.206 -2.882,-2.634 -4.713,-4.24c7.332,-5.714 9.379,-6.708 9.906,-6.873c0.208,0.017 0.292,0.085 0.369,0.166c1.141,1.181 0.979,5.85 0.871,8.94c-0.037,1.083 -0.073,2.13 -0.073,3.081c0.001,1.691 -0.176,3 -0.365,3.914z" fill="url(#color-2)"></path><path d="M14.694,20.684c-0.619,-0.343 -1.393,-0.012 -1.565,0.675c-0.573,2.286 -5.066,24.896 4.758,18.347c5.816,-3.877 16.373,-13.098 21.83,-17.464c1.205,-0.964 15.281,-13.098 16.373,-5.458c1.244,8.711 1.092,21.83 0,28.379c-0.273,1.637 -2.183,7.641 -8.732,3.275c-2.568,-1.712 -13.098,-12.006 -13.098,-12.006c-0.976,-0.676 2.647,-3.047 3.275,-3.275c2.937,-1.061 6.5,6.553 12.073,8.453c0.591,0.201 1.216,-0.111 1.397,-0.708c0.317,-1.038 0.719,-2.891 0.719,-5.561c0,-5.458 1.226,-14.19 -3.275,-14.19c-3.275,0 -27.288,20.739 -31.654,24.013c0,0 -7.453,5.417 -8.732,0c-1.63,-6.905 -1.092,-20.739 0,-28.379c0,0 1.092,-5.458 7.641,-1.092c0,0 13.098,8.732 14.19,9.824c0.965,0.965 -3.275,4.366 -4.366,3.275l-1.514,-1.514c-0.384,-0.384 -0.992,-0.427 -1.427,-0.102l-5.076,3.76c-0.36,0.27 -0.873,0.013 -0.873,-0.437v-2.226c0,-0.664 0.301,-1.29 0.82,-1.705l1.606,-1.339c0.535,-0.428 0.556,-1.25 0.023,-1.681c-1.428,-1.152 -3.232,-2.221 -4.393,-2.864z" fill="url(#color-3)"></path></g></g></svg>